<svg width="20" height="20" viewBox="0 0 20 20" fill="none" xmlns="http://www.w3.org/2000/svg">
<path d="M4.16667 18.3332H15.8333C16.7525 18.3332 17.5 17.5857 17.5 16.6665V7.49984C17.5 7.27882 17.4122 7.06686 17.2559 6.91058C17.0996 6.7543 16.8877 6.6665 16.6667 6.6665H14.1667V5.83317C14.1667 3.53567 12.2975 1.6665 10 1.6665C7.7025 1.6665 5.83333 3.53567 5.83333 5.83317V6.6665H3.33333C3.11232 6.6665 2.90036 6.7543 2.74408 6.91058C2.5878 7.06686 2.5 7.27882 2.5 7.49984V16.6665C2.5 17.5857 3.2475 18.3332 4.16667 18.3332ZM7.5 5.83317C7.5 4.45484 8.62167 3.33317 10 3.33317C11.3783 3.33317 12.5 4.45484 12.5 5.83317V6.6665H7.5V5.83317ZM4.16667 8.33317H5.83333V9.99984H7.5V8.33317H12.5V9.99984H14.1667V8.33317H15.8333L15.835 16.6665H4.16667V8.33317Z" fill="#2E2E2E"/>
</svg>
