<svg width="20" height="20" viewBox="0 0 20 20" fill="none" xmlns="http://www.w3.org/2000/svg">
<path d="M5.82656 9.99984C5.82656 12.3007 7.69823 14.1723 9.99906 14.1723C12.2999 14.1723 14.1716 12.3007 14.1716 9.99984C14.1716 7.699 12.2999 5.82734 9.99906 5.82734C7.69823 5.82734 5.82656 7.699 5.82656 9.99984ZM9.99906 7.494C11.3807 7.494 12.5049 8.61817 12.5049 9.99984C12.5049 11.3815 11.3807 12.5057 9.99906 12.5057C8.6174 12.5057 7.49323 11.3815 7.49323 9.99984C7.49323 8.61817 8.6174 7.494 9.99906 7.494ZM9.16406 15.8332H10.8307V18.3332H9.16406V15.8332ZM9.16406 1.6665H10.8307V4.1665H9.16406V1.6665ZM1.66406 9.1665H4.16406V10.8332H1.66406V9.1665ZM15.8307 9.1665H18.3307V10.8332H15.8307V9.1665ZM3.5149 15.3023L5.28156 13.534L6.46073 14.7123L4.69406 16.4807L3.5149 15.3023ZM13.5324 5.2865L15.3007 3.51817L16.4791 4.6965L14.7107 6.46484L13.5324 5.2865ZM5.28406 6.46567L3.51573 4.69734L4.6949 3.519L6.46156 5.28734L5.28406 6.46567ZM16.4791 15.3032L15.3007 16.4815L13.5324 14.7132L14.7107 13.5348L16.4791 15.3032Z" fill="#2E2E2E"/>
</svg>
