<svg width="76" height="20" viewBox="0 0 76 20" fill="none" xmlns="http://www.w3.org/2000/svg">
<path d="M29.2266 10.8359H27.3594V15H25.0156V3.625H29.2422C30.5859 3.625 31.6224 3.92448 32.3516 4.52344C33.0807 5.1224 33.4453 5.96875 33.4453 7.0625C33.4453 7.83854 33.276 8.48698 32.9375 9.00781C32.6042 9.52344 32.0964 9.9349 31.4141 10.2422L33.875 14.8906V15H31.3594L29.2266 10.8359ZM27.3594 8.9375H29.25C29.8385 8.9375 30.2943 8.78906 30.6172 8.49219C30.9401 8.1901 31.1016 7.77604 31.1016 7.25C31.1016 6.71354 30.9479 6.29167 30.6406 5.98438C30.3385 5.67708 29.8724 5.52344 29.2422 5.52344H27.3594V8.9375ZM45.2181 9.57031C45.2181 10.6901 45.0202 11.6719 44.6244 12.5156C44.2285 13.3594 43.6608 14.0104 42.9213 14.4688C42.1869 14.9271 41.3431 15.1562 40.39 15.1562C39.4473 15.1562 38.6061 14.9297 37.8666 14.4766C37.127 14.0234 36.5541 13.3776 36.1478 12.5391C35.7416 11.6953 35.5358 10.7266 35.5306 9.63281V9.07031C35.5306 7.95052 35.7311 6.96615 36.1322 6.11719C36.5384 5.26302 37.1088 4.60938 37.8431 4.15625C38.5827 3.69792 39.4265 3.46875 40.3744 3.46875C41.3223 3.46875 42.1634 3.69792 42.8978 4.15625C43.6374 4.60938 44.2077 5.26302 44.6088 6.11719C45.015 6.96615 45.2181 7.94792 45.2181 9.0625V9.57031ZM42.8431 9.05469C42.8431 7.86198 42.6296 6.95573 42.2025 6.33594C41.7754 5.71615 41.166 5.40625 40.3744 5.40625C39.5879 5.40625 38.9811 5.71354 38.5541 6.32812C38.127 6.9375 37.9108 7.83333 37.9056 9.01562V9.57031C37.9056 10.7318 38.1192 11.6328 38.5463 12.2734C38.9733 12.9141 39.5879 13.2344 40.39 13.2344C41.1765 13.2344 41.7806 12.9271 42.2025 12.3125C42.6244 11.6927 42.8379 10.7917 42.8431 9.60938V9.05469ZM49.905 13.1172H54.8816V15H47.5613V3.625H49.905V13.1172ZM63.7169 10.0703H59.2169V13.1172H64.4981V15H56.8731V3.625H64.4825V5.52344H59.2169V8.23438H63.7169V10.0703ZM70.5834 7.54688L72.7163 3.625H75.4116L72.0991 9.26562L75.4975 15H72.7709L70.5834 11.0156L68.3959 15H65.6694L69.0678 9.26562L65.7553 3.625H68.4506L70.5834 7.54688Z" fill="#F2F2F2"/>
<path d="M10.8327 6.6665H9.16602V10.8332H13.3327V9.1665H10.8327V6.6665Z" fill="#F2F2F2"/>
<path d="M16.6657 9.99984C16.6657 7.539 15.3223 5.3915 13.3332 4.2365V2.49984C13.3332 2.27882 13.2454 2.06686 13.0891 1.91058C12.9328 1.7543 12.7208 1.6665 12.4998 1.6665H7.49982C7.2788 1.6665 7.06684 1.7543 6.91056 1.91058C6.75428 2.06686 6.66648 2.27882 6.66648 2.49984V4.23567C4.67732 5.39067 3.33398 7.539 3.33398 9.99984C3.33499 11.1914 3.65521 12.3609 4.26136 13.3868C4.8675 14.4127 5.73742 15.2574 6.78065 15.8332H6.66648V17.534C6.66648 17.755 6.75428 17.967 6.91056 18.1233C7.06684 18.2795 7.2788 18.3673 7.49982 18.3673H12.4998C12.7208 18.3673 12.9328 18.2795 13.0891 18.1233C13.2454 17.967 13.3332 17.755 13.3332 17.534V15.8332H13.2173C14.261 15.2578 15.1314 14.4132 15.7379 13.3873C16.3444 12.3614 16.6647 11.1916 16.6657 9.99984ZM9.99898 14.999C8.67367 14.9975 7.4031 14.4702 6.46604 13.533C5.52898 12.5958 5.00197 11.3251 5.00065 9.99984C5.00197 8.67453 5.52898 7.40386 6.46604 6.46665C7.4031 5.52943 8.67367 5.00221 9.99898 5.00067C12.7573 5.00067 14.999 7.24317 14.999 9.99984C14.9977 11.3254 14.4704 12.5964 13.533 13.5336C12.5956 14.4709 11.3246 14.9979 9.99898 14.999Z" fill="#F2F2F2"/>
</svg>
